<?xml version="1.0" encoding="iso-8859-1"?>
<!-- Uploaded to: SVG Repo, www.svgrepo.com, Generator: SVG Repo Mixer Tools -->
<!DOCTYPE svg PUBLIC "-//W3C//DTD SVG 1.1//EN" "http://www.w3.org/Graphics/SVG/1.1/DTD/svg11.dtd">
<svg fill="#000000" height="800px" width="800px" version="1.1" id="Capa_1" xmlns="http://www.w3.org/2000/svg" xmlns:xlink="http://www.w3.org/1999/xlink" 
	 viewBox="0 0 325.002 325.002" xml:space="preserve">
<path d="M323.244,160.099l-25.265-25.265c-1.125-1.126-2.651-1.758-4.242-1.758c-1.592,0-3.117,0.632-4.243,1.758l-25.264,25.265
	c-2.343,2.343-2.343,6.142,0,8.484l4.571,4.571c-11.62,5.296-23.878,7.711-38.735,7.711c-19.911,0-33.003-4.502-42.934-9.735
	l4.876-4.876c2.343-2.343,2.343-6.142,0-8.484l-25.264-25.265c-1.126-1.126-2.651-1.758-4.243-1.758
	c-1.591,0-3.117,0.632-4.242,1.758l-8.391,8.391L82.762,73.787c1.632-2.931,2.568-6.299,2.568-9.885
	c0-11.251-9.153-20.404-20.404-20.404c-11.25,0-20.403,9.153-20.403,20.404c0,11.25,9.153,20.403,20.403,20.403
	c3.303,0,6.415-0.807,9.178-2.206l53.771,53.772c-8.879-2.786-19.699-4.715-33.142-4.715c-19.498,0-35.287,3.811-50.627,12.275
	l-8.599-8.599c-1.126-1.126-2.651-1.758-4.243-1.758c-1.591,0-3.117,0.632-4.242,1.758L1.758,160.099
	c-2.344,2.343-2.344,6.142,0,8.484l25.265,25.265c1.125,1.126,2.651,1.758,4.242,1.758c1.592,0,3.117-0.632,4.243-1.758
	l25.264-25.265c2.343-2.343,2.343-6.142,0-8.484l-7.798-7.799c9.419-4.762,22.427-9.143,41.76-9.143
	c20.023,0,33.132,4.549,43.067,9.808l-4.805,4.805c-2.344,2.343-2.344,6.142,0,8.484l25.265,25.265
	c1.125,1.126,2.651,1.758,4.242,1.758c1.592,0,3.117-0.632,4.243-1.758l8.389-8.389l68.432,68.432
	c-1.514,2.85-2.38,6.094-2.38,9.539c0,11.25,9.153,20.403,20.404,20.403c11.25,0,20.403-9.153,20.403-20.403
	c0-11.25-9.153-20.403-20.403-20.403c-3.445,0-6.69,0.866-9.54,2.38l-54.839-54.839c8.831,2.739,19.564,4.627,32.855,4.627
	c18.113,0,33.401-3.433,47.714-10.733l11.714,11.715c1.126,1.126,2.651,1.758,4.243,1.758c1.591,0,3.117-0.632,4.242-1.758
	l25.265-25.265C325.588,166.24,325.588,162.441,323.244,160.099z M31.265,181.12l-16.779-16.779l16.779-16.779l16.778,16.779
	L31.265,181.12z M56.522,63.902c0-4.634,3.77-8.404,8.403-8.404c4.634,0,8.404,3.771,8.404,8.404s-3.771,8.403-8.404,8.403
	C60.292,72.306,56.522,68.536,56.522,63.902z M162.502,178.791l-16.779-16.779l16.779-16.779l16.778,16.779L162.502,178.791z
	 M269.993,261.101c0,4.634-3.77,8.403-8.403,8.403s-8.404-3.77-8.404-8.403c0-1.868,0.62-3.59,1.655-4.986
	c0.345-0.225,0.673-0.484,0.975-0.787c0.303-0.302,0.562-0.63,0.786-0.974c1.398-1.036,3.12-1.656,4.988-1.656
	C266.224,252.697,269.993,256.467,269.993,261.101z M293.737,181.12l-16.778-16.779l16.778-16.779l16.779,16.779L293.737,181.12z"/>
</svg>